<svg width="509" height="111" viewBox="0 0 509 111" fill="none" xmlns="http://www.w3.org/2000/svg">
<path d="M99.936 54.44C99.5093 54.44 99.1253 54.2267 98.784 53.8C98.528 53.3733 98.5707 52.904 98.912 52.392C99.68 51.368 100.789 49.9173 102.24 48.04C103.776 46.0773 105.397 43.944 107.104 41.64C108.896 39.336 110.603 37.16 112.224 35.112C113.845 32.9787 115.168 31.272 116.192 29.992C117.301 28.6267 117.856 27.944 117.856 27.944C118.283 27.3467 118.837 27.2613 119.52 27.688C120.288 28.0293 121.141 28.5413 122.08 29.224C123.104 29.8213 124.128 30.2053 125.152 30.376C125.323 30.376 125.451 30.4187 125.536 30.504C125.707 30.504 125.835 30.504 125.92 30.504C127.456 30.504 128.437 29.6507 128.864 27.944C129.291 26.4933 128.821 25.128 127.456 23.848C126.091 22.4827 124.341 21.288 122.208 20.264C120.16 19.24 118.155 18.3867 116.192 17.704C114.229 17.0213 112.821 16.552 111.968 16.296C106.507 14.5893 100.405 13.2667 93.664 12.328C86.9227 11.3893 80.608 10.92 74.72 10.92C71.9893 10.92 68.6613 11.0053 64.736 11.176C60.896 11.3467 56.8 11.7307 52.448 12.328C48.1813 12.84 43.9573 13.6933 39.776 14.888C35.5947 15.9973 31.8827 17.4907 28.64 19.368C25.3973 21.2453 22.5387 23.6347 20.064 26.536C17.5893 29.352 16.352 32.4667 16.352 35.88C16.352 37.672 16.5653 38.9947 16.992 39.848C17.4187 40.616 17.8453 41 18.272 41C19.2107 41 19.68 40.1467 19.68 38.44C19.68 35.1973 20.7467 32.2107 22.88 29.48C25.0987 26.7493 27.3173 24.6587 29.536 23.208C33.888 20.3067 39.648 18.1733 46.816 16.808C54.0693 15.4427 61.5787 14.76 69.344 14.76C74.8053 14.76 80.1813 15.1013 85.472 15.784C90.7627 16.3813 95.6267 17.32 100.064 18.6C104.587 19.88 108.299 21.5013 111.2 23.464C111.627 23.6347 111.84 23.976 111.84 24.488C111.84 24.9147 111.627 25.2987 111.2 25.64C110.859 25.896 110.432 25.8533 109.92 25.512C107.104 23.72 103.52 22.2267 99.168 21.032C94.9013 19.752 90.208 18.8133 85.088 18.216C79.968 17.5333 74.7627 17.192 69.472 17.192C61.8773 17.192 54.5813 17.8747 47.584 19.24C40.672 20.52 35.168 22.5253 31.072 25.256C28.9387 26.7067 26.9333 28.6693 25.056 31.144C23.1787 33.5333 22.24 35.9653 22.24 38.44C22.24 40.0613 21.8133 41.3413 20.96 42.28C20.192 43.1333 19.296 43.56 18.272 43.56C17.1627 43.56 16.1387 42.9627 15.2 41.768C14.2613 40.488 13.792 38.5253 13.792 35.88C13.792 33.1493 14.432 30.5893 15.712 28.2C17.0773 25.8107 18.784 23.6773 20.832 21.8C22.9653 19.9227 25.1413 18.344 27.36 17.064C30.7733 15.1013 34.6133 13.5653 38.88 12.456C43.232 11.2613 47.6267 10.3653 52.064 9.768C56.5867 9.17066 60.8107 8.78666 64.736 8.616C68.7467 8.44533 72.0747 8.35999 74.72 8.35999C78.048 8.35999 82.0587 8.57333 86.752 8.99999C91.4453 9.42666 96.2667 10.1093 101.216 11.048C106.251 11.9867 111.029 13.1813 115.552 14.632C120.075 16.0827 123.787 17.832 126.688 19.88C128.053 20.8187 129.205 21.8853 130.144 23.08C131.083 24.2747 131.552 25.5973 131.552 27.048C131.552 27.304 131.509 27.56 131.424 27.816C131.424 28.072 131.381 28.328 131.296 28.584C130.869 30.2053 130.187 31.3573 129.248 32.04C128.309 32.7227 127.243 33.064 126.048 33.064C124.939 33.064 123.744 32.808 122.464 32.296C121.184 31.6987 120.032 31.1013 119.008 30.504C118.24 31.528 117.003 33.1067 115.296 35.24C113.675 37.288 111.883 39.5493 109.92 42.024C108.043 44.4987 106.251 46.8453 104.544 49.064C102.923 51.1973 101.728 52.8187 100.96 53.928C100.704 54.2693 100.363 54.44 99.936 54.44ZM78.816 67.368C77.536 67.2827 75.872 67.1973 73.824 67.112C71.776 66.9413 69.6 66.7707 67.296 66.6C65.0773 66.344 62.9867 66.0027 61.024 65.576C59.1467 65.1493 57.696 64.552 56.672 63.784C55.3067 62.76 54.624 61.0107 54.624 58.536C54.624 57.256 54.9227 56.104 55.52 55.08C56.2027 53.9707 57.312 53.3733 58.848 53.288C59.36 53.2027 59.872 53.16 60.384 53.16C60.896 53.16 61.3653 53.16 61.792 53.16C65.7173 53.16 69.5573 53.672 73.312 54.696C77.0667 55.72 80.864 56.4453 84.704 56.872C87.4347 53.4587 90.2507 49.9173 93.152 46.248C96.1387 42.4933 98.8693 39.08 101.344 36.008C103.819 32.8507 105.653 30.504 106.848 28.968C107.104 28.6267 107.445 28.456 107.872 28.456C108.299 28.456 108.683 28.712 109.024 29.224C109.365 29.6507 109.323 30.0773 108.896 30.504C107.616 32.1253 105.696 34.5573 103.136 37.8C100.576 40.9573 97.8027 44.4133 94.816 48.168C91.8293 51.9227 89.0133 55.5067 86.368 58.92C86.112 59.176 85.5573 59.304 84.704 59.304C83.5947 59.304 82.1867 59.1333 80.48 58.792C78.7733 58.4507 77.1947 58.1093 75.744 57.768C74.2933 57.4267 73.44 57.2133 73.184 57.128C70.7947 56.7013 68.4053 56.36 66.016 56.104C63.6267 55.7627 61.3227 55.6773 59.104 55.848C58.5067 55.9333 58.0373 56.3173 57.696 57C57.3547 57.6827 57.184 58.408 57.184 59.176C57.184 60.456 57.5253 61.3093 58.208 61.736C58.976 62.3333 60.2987 62.8027 62.176 63.144C64.0533 63.4853 66.0587 63.784 68.192 64.04C70.4107 64.2107 72.5013 64.3813 74.464 64.552C76.512 64.6373 78.048 64.7227 79.072 64.808C79.84 64.808 80.224 65.2347 80.224 66.088C80.224 66.4293 80.096 66.7707 79.84 67.112C79.584 67.368 79.2427 67.4533 78.816 67.368ZM22.24 107.816C20.0213 107.816 17.632 107.56 15.072 107.048C12.5973 106.536 10.208 105.725 7.904 104.616C5.68533 103.507 3.85067 102.013 2.4 100.136C1.03467 98.2587 0.352 95.9547 0.352 93.224C0.352 89.2133 1.504 85.544 3.808 82.216C6.19733 78.888 9.26933 76.0293 13.024 73.64C16.864 71.2507 21.0453 69.416 25.568 68.136C30.176 66.856 34.6987 66.216 39.136 66.216C40.5867 66.216 42.6773 66.3867 45.408 66.728C48.1387 67.0693 50.8693 67.6667 53.6 68.52C56.416 69.3733 58.6773 70.6107 60.384 72.232C61.3227 73.0853 61.9627 73.9387 62.304 74.792C62.6453 75.6453 62.816 76.4987 62.816 77.352C62.816 78.8027 62.304 80.0827 61.28 81.192C60.3413 82.216 59.1467 82.728 57.696 82.728C56.0747 82.728 54.496 82.0027 52.96 80.552C51.8507 79.528 50.1013 78.376 47.712 77.096C45.408 75.816 42.4213 75.176 38.752 75.176C33.632 75.176 29.1093 76.0293 25.184 77.736C21.2587 79.3573 18.1867 81.4053 15.968 83.88C13.7493 86.2693 12.64 88.5733 12.64 90.792C12.64 92.7547 13.664 94.4613 15.712 95.912C17.76 97.2773 21.0453 97.96 25.568 97.96C29.5787 97.96 34.4 96.8507 40.032 94.632C45.664 92.4133 51.424 89.1707 57.312 84.904C63.2853 80.6373 68.7893 75.4747 73.824 69.416C74.08 69.0747 74.4213 68.904 74.848 68.904C75.2747 68.904 75.6587 69.16 76 69.672C76.3413 70.0987 76.2987 70.5253 75.872 70.952C70.752 77.1813 65.12 82.5147 58.976 86.952C52.832 91.304 46.816 94.6747 40.928 97.064C35.04 99.368 29.92 100.52 25.568 100.52C20.192 100.52 16.2667 99.5813 13.792 97.704C11.3173 95.8267 10.08 93.5653 10.08 90.92C10.08 88.1893 11.232 85.416 13.536 82.6C15.9253 79.784 19.2533 77.4373 23.52 75.56C27.872 73.5973 32.9493 72.616 38.752 72.616C42.848 72.616 46.2187 73.3413 48.864 74.792C51.5093 76.2427 53.472 77.5653 54.752 78.76C55.9467 79.784 56.9707 80.296 57.824 80.296C58.5067 80.296 59.0613 80.04 59.488 79.528C59.9147 78.9307 60.128 78.2907 60.128 77.608C60.128 75.9013 59.3173 74.4933 57.696 73.384C56.0747 72.2747 54.0693 71.3787 51.68 70.696C49.2907 70.0133 46.944 69.544 44.64 69.288C42.336 68.9467 40.5013 68.776 39.136 68.776C34.9547 68.776 30.7307 69.3733 26.464 70.568C22.2827 71.7627 18.4 73.4693 14.816 75.688C11.3173 77.8213 8.45867 80.3813 6.24 83.368C4.10667 86.2693 3.04 89.4693 3.04 92.968C3.04 95.8693 3.97867 98.216 5.856 100.008C7.81867 101.8 10.2507 103.123 13.152 103.976C16.1387 104.829 19.168 105.256 22.24 105.256C28.896 105.256 35.168 104.275 41.056 102.312C46.944 100.349 52.3627 97.832 57.312 94.76C62.3467 91.6027 66.8267 88.3173 70.752 84.904C74.7627 81.4053 78.176 78.2053 80.992 75.304C83.7227 72.3173 85.728 69.8853 87.008 68.008C88.288 66.1307 89.2267 65.192 89.824 65.192C91.104 65.192 93.1947 65.192 96.096 65.192C99.0827 65.192 102.368 65.1067 105.952 64.936C109.536 64.68 113.035 64.296 116.448 63.784C119.861 63.1867 122.635 62.4187 124.768 61.48C125.28 61.224 125.963 60.7973 126.816 60.2C127.669 59.5173 128.395 58.7493 128.992 57.896C129.675 57.0427 129.888 56.232 129.632 55.464H129.376C129.291 55.464 129.12 55.5067 128.864 55.592C128.608 55.592 128.267 55.6773 127.84 55.848C124.512 57.4693 121.013 58.536 117.344 59.048C113.76 59.4747 110.133 59.688 106.464 59.688C104.843 59.688 103.221 59.688 101.6 59.688C100.064 59.6027 98.528 59.56 96.992 59.56C96.1387 59.56 95.712 59.1333 95.712 58.28C95.712 57.4267 96.1387 57 96.992 57C98.528 57 100.064 57.0427 101.6 57.128C103.221 57.128 104.843 57.128 106.464 57.128C109.963 57.128 113.419 56.9147 116.832 56.488C120.245 56.0613 123.531 55.08 126.688 53.544C127.712 53.032 128.608 52.776 129.376 52.776C131.253 52.776 132.192 53.8 132.192 55.848C132.192 57.0427 131.68 58.4507 130.656 60.072C129.632 61.608 128.011 62.8453 125.792 63.784C123.573 64.808 120.757 65.6187 117.344 66.216C114.016 66.728 110.56 67.112 106.976 67.368C103.392 67.5387 100.107 67.6667 97.12 67.752C94.1333 67.752 91.9147 67.752 90.464 67.752C84.064 75.944 77.664 82.6427 71.264 87.848C64.864 93.0533 58.6773 97.1067 52.704 100.008C46.7307 102.909 41.1413 104.915 35.936 106.024C30.816 107.219 26.2507 107.816 22.24 107.816ZM132.478 97.448C130.43 97.448 129.065 96.6373 128.382 95.016C127.785 93.3093 127.486 91.9013 127.486 90.792C127.486 88.6587 128.211 86.1413 129.662 83.24C131.113 80.3387 132.99 77.48 135.294 74.664C137.598 71.848 140.073 69.5013 142.718 67.624C145.363 65.7467 147.881 64.808 150.27 64.808C151.465 64.808 152.062 65.2347 152.062 66.088C152.062 66.4293 151.934 66.7707 151.678 67.112C151.422 67.368 151.081 67.4533 150.654 67.368C148.777 67.1973 146.643 67.9653 144.254 69.672C141.95 71.2933 139.689 73.4267 137.47 76.072C135.337 78.632 133.545 81.2347 132.094 83.88C130.729 86.5253 130.046 88.8293 130.046 90.792C130.046 91.9867 130.259 92.968 130.686 93.736C131.113 94.504 131.71 94.888 132.478 94.888C133.929 94.888 135.593 94.0347 137.47 92.328C139.433 90.536 141.438 88.3173 143.486 85.672C145.534 82.9413 147.497 80.1253 149.374 77.224C151.337 74.2373 153.043 71.5493 154.494 69.16C156.03 66.6853 157.182 64.8507 157.95 63.656C159.571 61.2667 161.193 59.6027 162.814 58.664C164.435 57.64 165.929 57.128 167.294 57.128C168.83 57.128 170.067 57.5973 171.006 58.536C172.03 59.4747 172.542 60.6693 172.542 62.12C172.542 63.4 172.073 64.7653 171.134 66.216C170.451 67.24 169.342 68.9467 167.806 71.336C166.27 73.64 164.691 76.1573 163.07 78.888C161.449 81.5333 160.083 83.9653 158.974 86.184C157.779 88.744 157.182 90.792 157.182 92.328C157.182 94.0347 158.035 94.888 159.742 94.888C161.278 94.888 162.985 94.376 164.862 93.352C166.825 92.328 168.787 91.0053 170.75 89.384C172.713 87.7627 174.547 86.0987 176.254 84.392C177.961 82.6 179.369 80.9787 180.478 79.528C180.734 79.1867 181.033 79.016 181.374 79.016C181.886 79.016 182.27 79.272 182.526 79.784C182.867 80.2107 182.867 80.6373 182.526 81.064C181.417 82.6853 179.881 84.4347 177.918 86.312C176.041 88.1893 173.993 89.9813 171.774 91.688C169.555 93.3947 167.337 94.8027 165.118 95.912C162.899 96.936 160.937 97.448 159.23 97.448C157.609 97.448 156.414 96.9787 155.646 96.04C154.963 95.1013 154.622 93.9067 154.622 92.456C154.622 90.664 155.134 88.616 156.158 86.312C157.267 83.9227 158.633 81.32 160.254 78.504C161.961 75.6027 163.625 72.9147 165.246 70.44C166.953 67.88 168.233 65.96 169.086 64.68C169.683 63.8267 169.982 62.9733 169.982 62.12C169.982 60.4987 169.129 59.688 167.422 59.688C166.483 59.688 165.331 60.1147 163.966 60.968C162.686 61.8213 161.363 63.2293 159.998 65.192C158.121 68.008 156.03 71.2507 153.726 74.92C151.507 78.5893 149.246 82.0453 146.942 85.288C144.638 88.4453 142.249 91.2613 139.774 93.736C137.385 96.2107 134.953 97.448 132.478 97.448ZM122.75 81.704C122.323 81.704 121.982 81.4907 121.726 81.064C121.385 80.6373 121.385 80.168 121.726 79.656C123.177 77.608 124.841 75.3893 126.718 73C128.681 70.5253 130.857 68.2213 133.246 66.088C135.635 63.8693 138.195 62.0773 140.926 60.712C143.657 59.2613 146.515 58.536 149.502 58.536C150.441 58.536 151.379 58.664 152.318 58.92C153.257 59.0907 154.153 59.3467 155.006 59.688C155.518 59.944 155.774 60.328 155.774 60.84C155.774 61.1813 155.603 61.5227 155.262 61.864C154.921 62.12 154.494 62.1627 153.982 61.992C153.982 61.992 153.854 61.9493 153.598 61.864C153.342 61.7787 153.001 61.6933 152.574 61.608C152.147 61.4373 151.678 61.3093 151.166 61.224C150.654 61.1387 150.099 61.096 149.502 61.096C146.003 61.096 142.675 62.1627 139.518 64.296C136.361 66.4293 133.417 69.032 130.686 72.104C128.041 75.176 125.737 78.1627 123.774 81.064C123.518 81.4907 123.177 81.704 122.75 81.704ZM155.134 105.64C151.294 105.64 148.521 104.616 146.814 102.568C145.193 100.435 144.382 98.1307 144.382 95.656C144.382 93.608 144.894 91.6453 145.918 89.768C146.174 89.3413 146.558 89.128 147.07 89.128C147.497 89.128 147.838 89.3413 148.094 89.768C148.435 90.1093 148.478 90.536 148.222 91.048C147.369 92.584 146.942 94.12 146.942 95.656C146.942 97.5333 147.582 99.24 148.862 100.776C150.142 102.312 152.233 103.08 155.134 103.08C158.377 103.08 161.449 102.397 164.35 101.032C167.337 99.5813 170.153 97.8747 172.798 95.912C172.969 95.7413 173.225 95.656 173.566 95.656C174.419 95.656 174.846 96.0827 174.846 96.936C174.846 97.3627 174.675 97.704 174.334 97.96C171.603 100.008 168.659 101.8 165.502 103.336C162.345 104.872 158.889 105.64 155.134 105.64ZM130.686 105.512C127.87 105.512 125.353 104.573 123.134 102.696C121.001 100.819 120.019 97.9173 120.19 93.992C120.19 93.224 120.617 92.84 121.47 92.84C121.811 92.84 122.153 92.968 122.494 93.224C122.75 93.3947 122.835 93.6933 122.75 94.12C122.665 97.192 123.433 99.4533 125.054 100.904C126.675 102.269 128.553 102.952 130.686 102.952C132.393 102.952 134.099 102.568 135.806 101.8C137.513 100.947 138.921 99.752 140.03 98.216C140.286 97.8747 140.627 97.704 141.054 97.704C141.481 97.704 141.865 97.9173 142.206 98.344C142.547 98.7707 142.505 99.24 142.078 99.752C140.713 101.629 139.006 103.08 136.958 104.104C134.91 105.043 132.819 105.512 130.686 105.512ZM216.7 53.544C214.652 53.544 212.903 52.8187 211.452 51.368C210.001 49.9173 209.276 48.168 209.276 46.12C209.276 43.9867 210.001 42.1947 211.452 40.744C212.903 39.2933 214.652 38.568 216.7 38.568C218.833 38.568 220.625 39.2933 222.076 40.744C223.527 42.1947 224.252 43.9867 224.252 46.12C224.252 48.168 223.527 49.9173 222.076 51.368C220.625 52.8187 218.833 53.544 216.7 53.544ZM216.7 50.984C218.151 50.984 219.345 50.5147 220.284 49.576C221.223 48.6373 221.692 47.4853 221.692 46.12C221.692 44.6693 221.223 43.4747 220.284 42.536C219.345 41.5973 218.151 41.128 216.7 41.128C215.335 41.128 214.183 41.5973 213.244 42.536C212.305 43.4747 211.836 44.6693 211.836 46.12C211.836 47.4853 212.305 48.6373 213.244 49.576C214.183 50.5147 215.335 50.984 216.7 50.984ZM199.42 97.832C197.799 97.832 196.647 97.2347 195.964 96.04C195.367 94.8453 195.068 93.5227 195.068 92.072C195.068 90.8773 195.367 89.1707 195.964 86.952C196.561 84.7333 197.372 82.344 198.396 79.784C199.505 77.1387 200.743 74.7067 202.108 72.488C203.473 70.184 204.881 68.3493 206.332 66.984C207.1 66.216 207.911 65.5333 208.764 64.936C209.617 63.7413 210.044 62.632 210.044 61.608C210.044 60.328 209.447 59.3467 208.252 58.664C207.143 57.896 205.905 57.512 204.54 57.512C203.089 57.512 201.98 57.8533 201.212 58.536C200.017 59.6453 198.737 60.968 197.372 62.504C196.092 63.9547 194.727 65.6613 193.276 67.624C191.74 69.5867 190.119 71.72 188.412 74.024C186.705 76.2427 184.743 78.632 182.524 81.192C182.268 81.5333 181.927 81.704 181.5 81.704C181.073 81.704 180.732 81.448 180.476 80.936C180.135 80.424 180.135 79.9547 180.476 79.528C182.695 77.0533 184.657 74.664 186.364 72.36C188.156 70.056 189.777 67.9653 191.228 66.088C192.764 64.1253 194.172 62.376 195.452 60.84C196.817 59.2187 198.183 57.8107 199.548 56.616C200.828 55.4213 202.407 54.824 204.284 54.824C206.503 54.824 208.508 55.592 210.3 57.128C212.092 58.5787 212.988 60.2853 212.988 62.248C212.988 63.9547 212.092 65.5333 210.3 66.984L209.66 67.496C208.807 68.264 207.911 69.0747 206.972 69.928C206.119 70.7813 205.393 71.72 204.796 72.744C203.857 74.7067 202.791 76.8827 201.596 79.272C200.487 81.576 199.505 83.88 198.652 86.184C197.884 88.488 197.5 90.536 197.5 92.328C197.5 94.2907 198.311 95.272 199.932 95.272C200.7 95.272 201.639 95.0587 202.748 94.632C205.393 93.5227 208.124 91.7733 210.94 89.384C213.756 86.9947 216.785 83.7093 220.028 79.528C220.284 79.1867 220.583 79.016 220.924 79.016C221.436 79.016 221.863 79.272 222.204 79.784C222.545 80.2107 222.503 80.6373 222.076 81.064C219.431 84.4773 216.956 87.2507 214.652 89.384C212.433 91.5173 209.831 93.4373 206.844 95.144C205.223 96.0827 203.815 96.7653 202.62 97.192C201.425 97.6187 200.359 97.832 199.42 97.832ZM198.78 105.64C194.599 105.64 191.313 104.189 188.924 101.288C186.62 98.3867 185.639 94.8027 185.98 90.536C186.065 89.256 186.449 87.464 187.132 85.16C187.815 82.7707 188.668 80.3813 189.692 77.992C190.801 75.5173 191.911 73.512 193.02 71.976C193.276 71.6347 193.617 71.464 194.044 71.464C194.471 71.464 194.855 71.6773 195.196 72.104C195.537 72.5307 195.495 73 195.068 73.512C194.044 74.8773 193.02 76.712 191.996 79.016C191.057 81.32 190.247 83.5813 189.564 85.8C188.967 88.0187 188.625 89.6827 188.54 90.792C188.284 93.9493 189.052 96.808 190.844 99.368C192.636 101.928 195.324 103.208 198.908 103.208C201.127 103.208 203.729 102.568 206.716 101.288C209.703 99.9227 212.945 97.6613 216.444 94.504C216.615 94.3333 216.871 94.248 217.212 94.248C217.809 94.248 218.236 94.5467 218.492 95.144C218.833 95.656 218.748 96.1253 218.236 96.552C214.567 99.7947 211.068 102.141 207.74 103.592C204.497 104.957 201.511 105.64 198.78 105.64ZM221 81.576C220.573 81.576 220.232 81.3627 219.976 80.936C219.635 80.5093 219.635 80.04 219.976 79.528C221.939 76.968 223.859 74.152 225.736 71.08C227.699 67.9227 229.363 65.0213 230.728 62.376C232.179 59.6453 233.16 57.6827 233.672 56.488C235.037 53.16 236.659 50.8133 238.536 49.448C240.413 47.9973 242.205 47.272 243.912 47.272C245.789 47.272 247.368 47.912 248.648 49.192C250.013 50.472 250.696 52.0933 250.696 54.056C250.696 55.08 250.355 56.36 249.672 57.896C249.416 58.408 249.032 58.664 248.52 58.664C248.093 58.664 247.709 58.4933 247.368 58.152C247.112 57.8107 247.112 57.384 247.368 56.872C247.795 55.848 248.008 54.952 248.008 54.184C248.008 52.9893 247.624 51.9653 246.856 51.112C246.088 50.2587 245.107 49.832 243.912 49.832C242.632 49.832 241.267 50.4293 239.816 51.624C238.451 52.8187 237.171 54.7813 235.976 57.512C235.464 58.792 234.483 60.7973 233.032 63.528C231.581 66.2587 229.875 69.2027 227.912 72.36C225.949 75.5173 223.987 78.4187 222.024 81.064C221.768 81.4053 221.427 81.576 221 81.576ZM250.312 96.808C249.203 96.808 248.264 96.552 247.496 96.04C246.045 95.1013 245.32 93.736 245.32 91.944C245.32 90.0667 245.917 88.0613 247.112 85.928C248.392 83.7093 249.757 81.6613 251.208 79.784C252.744 77.8213 253.811 76.2853 254.408 75.176C255.091 74.0667 255.773 72.9573 256.456 71.848C257.139 70.7387 257.48 69.544 257.48 68.264C257.48 67.5813 257.267 66.8987 256.84 66.216C256.413 65.448 255.517 64.808 254.152 64.296C252.787 63.6987 250.611 63.4 247.624 63.4C247.027 63.4 246.344 63.4427 245.576 63.528C244.808 63.6133 243.955 63.656 243.016 63.656H242.888C242.035 63.656 241.608 63.2293 241.608 62.376C241.608 61.5227 241.992 61.096 242.76 61.096C243.443 61.0107 244.168 60.968 244.936 60.968C245.704 60.8827 246.429 60.84 247.112 60.84C250.44 60.84 253.427 61.352 256.072 62.376C258.803 63.3147 260.168 65.1493 260.168 67.88C260.168 69.5867 259.571 71.5067 258.376 73.64C256.84 76.5413 255.048 79.272 253 81.832C251.037 84.3067 249.416 87.0373 248.136 90.024C248.051 90.28 247.965 90.536 247.88 90.792C247.88 91.048 247.88 91.304 247.88 91.56C247.88 92.6693 248.221 93.4373 248.904 93.864C249.331 94.12 249.8 94.248 250.312 94.248C251.592 94.248 253.128 93.6507 254.92 92.456C256.797 91.176 258.675 89.6827 260.552 87.976C262.515 86.184 264.264 84.52 265.8 82.984C267.336 81.3627 268.403 80.168 269 79.4C269.256 79.0587 269.555 78.888 269.896 78.888C270.323 78.888 270.707 79.144 271.048 79.656C271.389 80.0827 271.347 80.552 270.92 81.064C269.981 82.2587 268.232 84.136 265.672 86.696C263.112 89.1707 260.467 91.4747 257.736 93.608C255.005 95.7413 252.531 96.808 250.312 96.808ZM220.104 92.84C219.592 92.84 219.208 92.584 218.952 92.072C218.611 91.56 218.696 91.0907 219.208 90.664C222.024 87.9333 224.712 84.904 227.272 81.576C229.832 78.1627 232.008 75.048 233.8 72.232C235.677 69.416 236.829 67.4533 237.256 66.344C237.512 65.832 237.896 65.576 238.408 65.576C238.835 65.576 239.176 65.7467 239.432 66.088C239.688 66.4293 239.731 66.856 239.56 67.368C239.133 68.5627 237.981 70.6107 236.104 73.512C234.227 76.4133 231.965 79.6133 229.32 83.112C226.675 86.5253 223.901 89.64 221 92.456C220.744 92.712 220.445 92.84 220.104 92.84ZM244.04 106.28C241.139 106.28 238.579 105.555 236.36 104.104C234.227 102.653 233.16 100.221 233.16 96.808C233.16 94.0773 233.928 91.0907 235.464 87.848C237 84.52 238.792 81.32 240.84 78.248C242.888 75.0907 244.723 72.4027 246.344 70.184C246.6 69.8427 246.941 69.672 247.368 69.672C247.795 69.672 248.179 69.8853 248.52 70.312C248.861 70.7387 248.819 71.208 248.392 71.72C246.941 73.768 245.192 76.2853 243.144 79.272C241.181 82.2587 239.432 85.3307 237.896 88.488C236.445 91.56 235.72 94.3333 235.72 96.808C235.72 99.112 236.403 100.861 237.768 102.056C239.219 103.165 241.139 103.72 243.528 103.72C246.6 103.72 249.928 102.909 253.512 101.288C257.181 99.6667 259.997 97.6187 261.96 95.144C262.216 94.8027 262.557 94.632 262.984 94.632C263.411 94.632 263.795 94.888 264.136 95.4C264.477 95.8267 264.435 96.2533 264.008 96.68C261.704 99.4107 258.675 101.715 254.92 103.592C251.165 105.384 247.539 106.28 244.04 106.28ZM296.755 103.208C293.171 103.208 289.971 102.696 287.155 101.672C284.68 100.733 282.59 99.368 280.883 97.576C279.176 95.784 278.323 93.864 278.323 91.816C278.323 89.512 279.39 87.6773 281.523 86.312C283.656 84.8613 286.814 84.136 290.995 84.136C295.518 84.136 300.083 84.776 304.691 86.056C309.299 87.336 313.608 88.9147 317.619 90.792C318.131 91.048 318.387 91.432 318.387 91.944C318.387 92.2853 318.174 92.6267 317.747 92.968C317.406 93.3093 316.979 93.352 316.467 93.096C312.456 91.2187 308.275 89.6827 303.923 88.488C299.571 87.2933 295.304 86.696 291.123 86.696C287.027 86.696 284.296 87.2933 282.931 88.488C281.566 89.6827 280.883 90.792 280.883 91.816C280.883 93.0107 281.48 94.376 282.675 95.912C283.87 97.3627 285.619 98.5147 287.923 99.368C290.227 100.221 293.086 100.648 296.499 100.648C300.595 100.648 304.563 100.093 308.403 98.984C312.328 97.8747 316.168 95.9973 319.923 93.352C323.678 90.6213 327.262 87.464 330.675 83.88C334.088 80.2107 337.246 76.4133 340.147 72.488C343.134 68.4773 345.736 64.68 347.955 61.096C350.174 57.4267 351.966 54.2693 353.331 51.624C354.696 48.8933 356.488 45.3947 358.707 41.128C360.926 36.776 363.486 32.2533 366.387 27.56C369.288 22.8667 372.446 18.472 375.859 14.376C379.358 10.1947 382.984 6.82399 386.739 4.26399C390.579 1.61866 394.504 0.295998 398.515 0.295998C399.966 0.295998 401.459 0.509331 402.995 0.935997C404.531 1.27733 406.024 1.91733 407.475 2.856C409.95 4.392 411.742 6.26933 412.851 8.488C413.96 10.7067 414.515 13.1813 414.515 15.912C414.515 19.24 413.79 22.7387 412.339 26.408C410.888 29.992 408.883 33.448 406.323 36.776C403.848 40.104 400.99 43.0907 397.747 45.736C394.504 48.3813 391.134 50.3867 387.635 51.752C387.464 51.8373 387.294 51.88 387.123 51.88C386.27 51.88 385.843 51.4107 385.843 50.472C385.843 50.0453 386.099 49.704 386.611 49.448C391.56 47.5707 395.912 44.7547 399.667 41C403.422 37.2453 406.366 33.1493 408.499 28.712C410.718 24.2747 411.827 20.0933 411.827 16.168C411.827 13.864 411.358 11.7307 410.419 9.768C409.566 7.80533 408.158 6.26933 406.195 5.16C403.806 3.70933 401.288 2.98399 398.643 2.98399C394.888 2.98399 391.219 4.26399 387.635 6.824C384.051 9.384 380.595 12.712 377.267 16.808C374.024 20.904 370.995 25.256 368.179 29.864C365.363 34.3867 362.888 38.696 360.755 42.792C358.622 46.888 356.915 50.216 355.635 52.776C354.27 55.4213 352.435 58.5787 350.131 62.248C347.912 65.9173 345.31 69.8 342.323 73.896C339.336 77.9067 336.051 81.7893 332.467 85.544C328.968 89.2987 325.214 92.584 321.203 95.4C317.278 98.216 313.267 100.221 309.171 101.416C307.294 101.928 305.288 102.355 303.155 102.696C301.022 103.037 298.888 103.208 296.755 103.208ZM297.267 110.12C292.659 110.12 288.264 109.352 284.083 107.816C279.902 106.365 276.488 104.189 273.843 101.288C271.198 98.3867 269.875 94.888 269.875 90.792C269.875 86.6107 272.008 83.1547 276.275 80.424C280.542 77.6933 286.046 76.328 292.787 76.328C298.334 76.328 303.582 77.224 308.531 79.016C313.566 80.808 318.643 82.984 323.763 85.544C324.275 85.8 324.531 86.184 324.531 86.696C324.531 87.0373 324.318 87.3787 323.891 87.72C323.55 88.0613 323.123 88.104 322.611 87.848C317.32 85.2027 312.328 83.0693 307.635 81.448C302.942 79.7413 297.864 78.888 292.403 78.888C286.003 78.888 281.054 80.1253 277.555 82.6C274.142 85.0747 272.435 87.8907 272.435 91.048C272.435 94.632 273.672 97.6613 276.147 100.136C278.622 102.611 281.736 104.488 285.491 105.768C289.331 107.048 293.256 107.688 297.267 107.688C304.264 107.688 310.792 106.195 316.851 103.208C322.91 100.221 328.542 96.2107 333.747 91.176C338.952 86.1413 343.731 80.552 348.083 74.408C352.435 68.1787 356.36 61.9067 359.859 55.592C361.054 53.3733 362.59 50.5573 364.467 47.144C366.43 43.6453 368.563 39.9333 370.867 36.008C373.171 32.0827 375.603 28.2853 378.163 24.616C380.808 20.8613 383.411 17.6613 385.971 15.016C388.531 12.2853 391.006 10.4933 393.395 9.63999C394.846 9.04266 396.296 8.744 397.747 8.744C401.246 8.744 403.678 10.28 405.043 13.352C405.64 14.5467 405.939 16.0827 405.939 17.96C405.939 19.752 405.598 21.7573 404.915 23.976C404.232 26.1093 403.123 28.4133 401.587 30.888C400.307 32.936 398.472 34.984 396.083 37.032C393.779 38.9947 391.39 40.6587 388.915 42.024C386.44 43.3893 384.307 44.072 382.515 44.072H382.387C381.534 44.072 381.107 43.6453 381.107 42.792C381.107 41.9387 381.491 41.512 382.259 41.512C383.71 41.4267 385.544 40.7867 387.763 39.592C389.982 38.3973 392.158 36.904 394.291 35.112C396.51 33.32 398.174 31.4853 399.283 29.608C400.734 27.1333 401.758 24.9147 402.355 22.952C403.038 20.9893 403.379 19.2827 403.379 17.832C403.379 16.552 403.166 15.4 402.739 14.376C401.886 12.328 400.222 11.304 397.747 11.304C397.235 11.304 396.68 11.3467 396.083 11.432C395.571 11.5173 395.016 11.688 394.419 11.944C392.286 12.7973 389.982 14.5467 387.507 17.192C385.032 19.8373 382.515 22.9947 379.955 26.664C377.48 30.248 375.091 34.0027 372.787 37.928C370.483 41.768 368.392 45.3947 366.515 48.808C364.638 52.136 363.144 54.824 362.035 56.872C358.366 63.528 354.27 70.056 349.747 76.456C345.31 82.7707 340.403 88.488 335.027 93.608C329.651 98.6427 323.806 102.653 317.491 105.64C311.262 108.627 304.52 110.12 297.267 110.12ZM362.675 102.312C358.408 102.312 354.099 101.587 349.747 100.136C345.48 98.6 341.214 96.8507 336.947 94.888C336.435 94.632 336.179 94.248 336.179 93.736C336.179 93.3093 336.35 92.968 336.691 92.712C337.032 92.3707 337.459 92.328 337.971 92.584C342.238 94.5467 346.419 96.2533 350.515 97.704C354.611 99.0693 358.664 99.752 362.675 99.752C367.966 99.752 372.488 99.0267 376.243 97.576C379.998 96.1253 383.496 93.9067 386.739 90.92C390.067 87.9333 393.523 84.136 397.107 79.528C397.363 79.1867 397.662 79.016 398.003 79.016C398.43 79.016 398.814 79.272 399.155 79.784C399.496 80.296 399.454 80.7653 399.027 81.192C395.443 85.8 391.944 89.6827 388.531 92.84C385.118 95.9973 381.363 98.3867 377.267 100.008C373.256 101.544 368.392 102.312 362.675 102.312ZM361.395 109.992C355.934 109.992 350.643 108.968 345.523 106.92C340.488 104.957 335.454 102.696 330.419 100.136C329.992 99.88 329.779 99.496 329.779 98.984C329.779 98.5573 329.95 98.216 330.291 97.96C330.718 97.6187 331.187 97.576 331.699 97.832C336.734 100.392 341.64 102.653 346.419 104.616C351.283 106.493 356.275 107.432 361.395 107.432C367.539 107.432 373.086 106.493 378.035 104.616C382.984 102.653 387.55 99.5813 391.731 95.4L396.467 90.536C396.723 90.28 397.022 90.152 397.363 90.152C397.875 90.152 398.259 90.408 398.515 90.92C398.856 91.432 398.771 91.9013 398.259 92.328C396.296 94.2053 394.376 96.1253 392.499 98.088C390.622 99.9653 388.531 101.629 386.227 103.08C383.326 104.957 379.827 106.579 375.731 107.944C371.72 109.309 366.942 109.992 361.395 109.992ZM433.325 53.544C431.277 53.544 429.528 52.8187 428.077 51.368C426.626 49.9173 425.901 48.168 425.901 46.12C425.901 43.9867 426.626 42.1947 428.077 40.744C429.528 39.2933 431.277 38.568 433.325 38.568C435.458 38.568 437.25 39.2933 438.701 40.744C440.152 42.1947 440.877 43.9867 440.877 46.12C440.877 48.168 440.152 49.9173 438.701 51.368C437.25 52.8187 435.458 53.544 433.325 53.544ZM433.325 50.984C434.776 50.984 435.97 50.5147 436.909 49.576C437.848 48.6373 438.317 47.4853 438.317 46.12C438.317 44.6693 437.848 43.4747 436.909 42.536C435.97 41.5973 434.776 41.128 433.325 41.128C431.96 41.128 430.808 41.5973 429.869 42.536C428.93 43.4747 428.461 44.6693 428.461 46.12C428.461 47.4853 428.93 48.6373 429.869 49.576C430.808 50.5147 431.96 50.984 433.325 50.984ZM416.045 97.832C414.424 97.832 413.272 97.2347 412.589 96.04C411.992 94.8453 411.693 93.5227 411.693 92.072C411.693 90.8773 411.992 89.1707 412.589 86.952C413.186 84.7333 413.997 82.344 415.021 79.784C416.13 77.1387 417.368 74.7067 418.733 72.488C420.098 70.184 421.506 68.3493 422.957 66.984C423.725 66.216 424.536 65.5333 425.389 64.936C426.242 63.7413 426.669 62.632 426.669 61.608C426.669 60.328 426.072 59.3467 424.877 58.664C423.768 57.896 422.53 57.512 421.165 57.512C419.714 57.512 418.605 57.8533 417.837 58.536C416.642 59.6453 415.362 60.968 413.997 62.504C412.717 63.9547 411.352 65.6613 409.901 67.624C408.365 69.5867 406.744 71.72 405.037 74.024C403.33 76.2427 401.368 78.632 399.149 81.192C398.893 81.5333 398.552 81.704 398.125 81.704C397.698 81.704 397.357 81.448 397.101 80.936C396.76 80.424 396.76 79.9547 397.101 79.528C399.32 77.0533 401.282 74.664 402.989 72.36C404.781 70.056 406.402 67.9653 407.853 66.088C409.389 64.1253 410.797 62.376 412.077 60.84C413.442 59.2187 414.808 57.8107 416.173 56.616C417.453 55.4213 419.032 54.824 420.909 54.824C423.128 54.824 425.133 55.592 426.925 57.128C428.717 58.5787 429.613 60.2853 429.613 62.248C429.613 63.9547 428.717 65.5333 426.925 66.984L426.285 67.496C425.432 68.264 424.536 69.0747 423.597 69.928C422.744 70.7813 422.018 71.72 421.421 72.744C420.482 74.7067 419.416 76.8827 418.221 79.272C417.112 81.576 416.13 83.88 415.277 86.184C414.509 88.488 414.125 90.536 414.125 92.328C414.125 94.2907 414.936 95.272 416.557 95.272C417.325 95.272 418.264 95.0587 419.373 94.632C422.018 93.5227 424.749 91.7733 427.565 89.384C430.381 86.9947 433.41 83.7093 436.653 79.528C436.909 79.1867 437.208 79.016 437.549 79.016C438.061 79.016 438.488 79.272 438.829 79.784C439.17 80.2107 439.128 80.6373 438.701 81.064C436.056 84.4773 433.581 87.2507 431.277 89.384C429.058 91.5173 426.456 93.4373 423.469 95.144C421.848 96.0827 420.44 96.7653 419.245 97.192C418.05 97.6187 416.984 97.832 416.045 97.832ZM415.405 105.64C411.224 105.64 407.938 104.189 405.549 101.288C403.245 98.3867 402.264 94.8027 402.605 90.536C402.69 89.256 403.074 87.464 403.757 85.16C404.44 82.7707 405.293 80.3813 406.317 77.992C407.426 75.5173 408.536 73.512 409.645 71.976C409.901 71.6347 410.242 71.464 410.669 71.464C411.096 71.464 411.48 71.6773 411.821 72.104C412.162 72.5307 412.12 73 411.693 73.512C410.669 74.8773 409.645 76.712 408.621 79.016C407.682 81.32 406.872 83.5813 406.189 85.8C405.592 88.0187 405.25 89.6827 405.165 90.792C404.909 93.9493 405.677 96.808 407.469 99.368C409.261 101.928 411.949 103.208 415.533 103.208C417.752 103.208 420.354 102.568 423.341 101.288C426.328 99.9227 429.57 97.6613 433.069 94.504C433.24 94.3333 433.496 94.248 433.837 94.248C434.434 94.248 434.861 94.5467 435.117 95.144C435.458 95.656 435.373 96.1253 434.861 96.552C431.192 99.7947 427.693 102.141 424.365 103.592C421.122 104.957 418.136 105.64 415.405 105.64ZM437.625 81.704C437.198 81.704 436.857 81.448 436.601 80.936C436.26 80.424 436.26 79.9547 436.601 79.528C438.734 77.1387 441.252 74.152 444.153 70.568C447.14 66.8987 450.382 63.016 453.881 58.92C457.465 54.7387 461.177 50.6427 465.017 46.632C468.857 42.536 472.74 38.824 476.665 35.496C480.59 32.168 484.43 29.5227 488.185 27.56C492.025 25.512 495.652 24.488 499.065 24.488C500.089 24.488 501.326 24.7013 502.777 25.128C504.313 25.5547 505.678 26.28 506.873 27.304C508.068 28.2427 508.665 29.5653 508.665 31.272C508.665 32.808 508.238 33.9173 507.385 34.6C506.532 35.1973 505.508 35.5813 504.313 35.752C503.118 35.9227 501.966 36.008 500.857 36.008C498.297 36.008 495.652 36.6907 492.921 38.056C490.19 39.336 487.545 41 484.985 43.048C482.425 45.096 480.036 47.3147 477.817 49.704C475.598 52.008 473.721 54.184 472.185 56.232C471.929 56.5733 471.588 56.744 471.161 56.744C470.734 56.744 470.35 56.5307 470.009 56.104C469.753 55.6773 469.796 55.208 470.137 54.696C471.673 52.648 473.55 50.4293 475.769 48.04C478.073 45.5653 480.59 43.2187 483.321 41C486.137 38.7813 489.038 36.9893 492.025 35.624C495.012 34.1733 497.956 33.448 500.857 33.448C501.625 33.448 502.692 33.4053 504.057 33.32C505.422 33.1493 506.105 32.4667 506.105 31.272C506.105 30.0773 505.294 29.096 503.673 28.328C502.137 27.4747 500.601 27.048 499.065 27.048C495.908 27.048 492.494 28.072 488.825 30.12C485.241 32.0827 481.529 34.728 477.689 38.056C473.849 41.384 470.009 45.0533 466.169 49.064C462.414 53.0747 458.788 57.128 455.289 61.224C451.876 65.2347 448.718 68.9893 445.817 72.488C443.001 75.9867 440.612 78.888 438.649 81.192C438.393 81.5333 438.052 81.704 437.625 81.704ZM448.633 104.872C446.585 104.872 444.494 104.531 442.361 103.848C440.228 103.165 438.478 102.056 437.113 100.52C435.662 98.984 434.937 96.936 434.937 94.376C434.937 93.352 435.321 92.84 436.089 92.84C437.028 92.84 437.497 93.3947 437.497 94.504C437.497 96.4667 438.094 98.0453 439.289 99.24C440.484 100.349 441.934 101.16 443.641 101.672C445.433 102.099 447.097 102.312 448.633 102.312C452.644 102.312 456.569 101.501 460.409 99.88C464.334 98.1733 467.876 95.8693 471.033 92.968C474.19 90.0667 476.708 86.7813 478.585 83.112C480.462 79.3573 481.401 75.432 481.401 71.336C481.401 68.264 480.548 65.704 478.841 63.656C477.134 61.608 474.745 60.584 471.673 60.584C469.625 60.584 467.577 61.0107 465.529 61.864C463.566 62.632 461.646 63.6133 459.769 64.808C459.428 64.9787 459.172 65.064 459.001 65.064C458.233 65.064 457.849 64.6373 457.849 63.784C457.849 63.3573 458.02 63.016 458.361 62.76C460.324 61.48 462.414 60.3707 464.633 59.432C466.937 58.4933 469.284 58.024 471.673 58.024C475.684 58.024 478.713 59.3467 480.761 61.992C482.894 64.6373 483.961 67.752 483.961 71.336C483.961 75.7733 482.937 80.04 480.889 84.136C478.841 88.1467 476.11 91.7307 472.697 94.888C469.369 97.96 465.614 100.392 461.433 102.184C457.252 103.976 452.985 104.872 448.633 104.872ZM450.809 98.216C446.884 98.216 444.025 96.8507 442.233 94.12C440.526 91.3893 439.758 88.3173 439.929 84.904C439.929 84.136 440.356 83.752 441.209 83.752C441.55 83.752 441.849 83.88 442.105 84.136C442.446 84.3067 442.574 84.6053 442.489 85.032C442.404 87.7627 442.958 90.2373 444.153 92.456C445.433 94.5893 447.652 95.656 450.809 95.656C453.113 95.656 455.502 94.8453 457.977 93.224C460.537 91.5173 462.884 89.384 465.017 86.824C467.15 84.264 468.9 81.6187 470.265 78.888C471.63 76.072 472.313 73.5973 472.313 71.464C472.313 68.904 471.118 67.624 468.729 67.624C466.766 67.624 464.633 68.3493 462.329 69.8C460.025 71.2507 457.849 73.128 455.801 75.432C453.753 77.6507 452.132 79.9973 450.937 82.472C449.742 84.9467 449.273 87.208 449.529 89.256V89.384C449.529 90.2373 449.102 90.664 448.249 90.664C447.396 90.664 446.969 90.28 446.969 89.512C446.713 87.1227 447.225 84.52 448.505 81.704C449.87 78.888 451.662 76.2427 453.881 73.768C456.185 71.208 458.617 69.1173 461.177 67.496C463.822 65.8747 466.34 65.064 468.729 65.064C470.692 65.064 472.185 65.6613 473.209 66.856C474.318 68.0507 474.873 69.5867 474.873 71.464C474.873 73.8533 474.148 76.584 472.697 79.656C471.246 82.6427 469.326 85.5867 466.937 88.488C464.633 91.304 462.073 93.6507 459.257 95.528C456.441 97.32 453.625 98.216 450.809 98.216Z" fill="url(#paint0_linear_1_2)"/>
<defs>
<linearGradient id="paint0_linear_1_2" x1="-4" y1="55.5" x2="520" y2="55.5" gradientUnits="userSpaceOnUse">
<stop stop-color="#FFEE7F"/>
<stop offset="0.505" stop-color="#7BCB55"/>
<stop offset="1" stop-color="#01AB2E"/>
</linearGradient>
</defs>
</svg>
